<?xml version="1.0" standalone="no"?>
<!DOCTYPE svg PUBLIC "-//W3C//DTD SVG 20010904//EN"
 "http://www.w3.org/TR/2001/REC-SVG-20010904/DTD/svg10.dtd">
<svg version="1.0" xmlns="http://www.w3.org/2000/svg"
 width="1467.000000pt" height="725.000000pt" viewBox="0 0 1467.000000 725.000000"
 preserveAspectRatio="xMidYMid meet">
<metadata>
Created by potrace 1.16, written by Peter Selinger 2001-2019
</metadata>
<g transform="translate(0.000000,725.000000) scale(0.100000,-0.100000)"
fill="#ff3222" stroke="none">
<path d="M7429 5338 c-141 -10 -171 -36 -165 -143 2 -38 8 -90 14 -115 6 -25
11 -91 12 -148 0 -66 5 -113 14 -130 7 -15 16 -54 20 -87 3 -33 10 -82 15
-110 6 -27 10 -100 10 -160 1 -63 6 -116 11 -121 16 -16 24 -1200 10 -1444
-20 -337 -27 -889 -13 -934 19 -57 17 -296 -2 -332 -8 -16 -15 -43 -15 -61 0
-17 -5 -35 -11 -39 -7 -4 -9 -22 -5 -45 3 -22 9 -57 12 -79 5 -30 15 -47 39
-65 36 -28 119 -59 186 -69 24 -4 58 -12 74 -17 17 -5 89 -13 160 -19 72 -6
213 -17 315 -26 102 -8 327 -17 500 -20 280 -5 330 -3 450 15 170 25 250 42
250 53 0 4 6 8 14 8 33 0 264 136 274 162 2 4 8 8 13 8 11 0 99 88 99 99 0 5
7 14 15 21 8 7 15 20 15 30 0 10 7 20 15 24 8 3 15 12 15 21 0 8 4 15 8 15 5
0 16 19 26 42 9 24 24 58 32 76 8 18 14 43 14 56 0 13 7 43 15 66 21 61 21
363 0 404 -8 16 -18 46 -21 68 -4 21 -11 41 -15 44 -5 3 -9 15 -9 27 -1 12
-12 40 -25 62 -32 52 -65 121 -65 134 0 6 -4 11 -9 11 -6 0 -24 28 -41 63 -16
34 -43 76 -58 92 -15 17 -31 38 -37 47 -5 9 -37 48 -70 88 -33 40 -69 85 -81
101 -11 16 -33 38 -47 49 -15 12 -27 27 -27 33 0 6 -13 25 -29 41 -31 32 -85
95 -156 181 -22 26 -50 59 -63 73 -12 14 -33 38 -45 54 -12 16 -37 45 -54 64
-18 20 -33 39 -33 43 0 5 -11 20 -25 35 -27 29 -123 174 -143 216 -7 14 -20
39 -30 55 -10 17 -27 55 -37 85 -10 30 -23 66 -29 79 -13 29 -10 309 4 326 5
6 12 31 16 55 4 24 13 55 21 69 7 14 13 34 13 44 0 9 4 17 9 17 4 0 11 22 14
48 11 96 61 143 172 163 52 10 79 10 124 1 62 -13 111 -33 111 -44 0 -5 5 -8
10 -8 10 0 50 -36 50 -44 0 -3 14 -20 30 -38 17 -18 30 -38 30 -44 0 -7 7 -14
15 -18 8 -3 15 -14 15 -25 0 -10 7 -21 15 -25 8 -3 15 -12 15 -19 0 -8 7 -20
15 -27 8 -7 15 -23 15 -36 0 -13 4 -24 10 -24 5 0 13 -18 16 -40 4 -22 11 -43
15 -46 5 -3 9 -17 9 -32 0 -30 24 -109 49 -159 11 -25 24 -35 50 -39 28 -6 51
2 143 50 111 58 134 73 175 115 29 30 30 83 2 126 -10 17 -30 53 -44 80 -30
58 -45 84 -63 103 -7 8 -20 28 -29 45 -25 50 -102 142 -204 245 -84 85 -118
110 -179 133 -30 11 -60 25 -66 30 -19 16 -174 30 -254 23 -41 -3 -93 -14
-115 -24 -22 -10 -51 -21 -65 -24 -66 -18 -117 -47 -166 -93 -7 -7 -15 -13
-19 -13 -5 0 -25 -17 -102 -86 -12 -12 -23 -26 -23 -33 0 -6 -4 -11 -10 -11
-15 0 -50 -38 -50 -54 0 -8 -7 -16 -15 -20 -8 -3 -15 -12 -15 -21 0 -8 -4 -15
-9 -15 -11 0 -41 -56 -41 -75 0 -7 -7 -18 -15 -25 -8 -7 -15 -23 -15 -36 0
-12 -7 -29 -15 -38 -8 -8 -15 -23 -15 -33 0 -10 -8 -30 -17 -43 -25 -35 -24
-368 1 -449 9 -30 16 -77 16 -105 0 -29 7 -59 15 -70 8 -11 15 -32 15 -46 0
-14 5 -31 11 -37 6 -6 15 -29 20 -50 4 -21 13 -60 19 -88 5 -27 15 -54 20 -59
6 -6 10 -17 10 -25 0 -9 7 -29 15 -45 8 -15 15 -38 15 -51 0 -12 7 -28 15 -35
8 -7 15 -20 15 -29 0 -9 7 -25 15 -35 8 -11 15 -30 15 -42 0 -13 4 -25 9 -29
5 -3 12 -19 16 -35 4 -17 10 -30 15 -30 4 0 11 -11 14 -25 4 -14 11 -25 16
-25 6 0 10 -8 10 -17 0 -10 7 -27 15 -37 8 -11 15 -28 15 -38 0 -10 6 -18 14
-18 7 0 16 -8 20 -17 8 -24 29 -57 66 -102 11 -13 20 -27 20 -31 0 -4 10 -18
23 -31 12 -14 38 -45 57 -69 19 -25 39 -49 45 -55 6 -5 28 -31 48 -57 21 -26
94 -104 162 -173 69 -69 125 -130 125 -135 0 -4 4 -10 8 -12 16 -6 102 -126
102 -141 0 -8 7 -20 15 -27 11 -9 15 -33 15 -90 0 -57 -4 -81 -15 -90 -8 -7
-15 -21 -15 -32 0 -10 -7 -21 -15 -24 -8 -4 -15 -11 -15 -16 0 -14 -60 -70
-115 -108 -25 -17 -81 -45 -123 -60 -42 -16 -93 -35 -112 -43 -19 -8 -77 -22
-128 -31 -51 -9 -121 -26 -155 -39 -58 -21 -77 -22 -332 -22 -261 0 -271 1
-308 22 -20 12 -79 32 -130 44 -50 12 -108 29 -127 39 -19 10 -57 24 -85 30
-67 17 -115 40 -115 54 0 23 74 48 157 54 70 4 85 8 105 29 20 22 23 34 22 99
-1 41 -6 80 -12 87 -15 18 -32 113 -41 242 -5 61 -14 128 -20 150 -6 22 -16
112 -22 200 -6 88 -15 198 -20 245 -5 47 -13 204 -19 350 -5 146 -14 281 -20
300 -14 50 -14 933 -1 959 7 12 11 118 11 284 0 204 4 283 16 342 22 106 16
228 -11 250 -21 16 -122 17 -306 3z"/>
<path d="M4970 5323 c-19 -2 -57 -8 -85 -14 -27 -5 -79 -12 -115 -15 -36 -3
-71 -7 -79 -10 -7 -2 -48 -7 -90 -9 -142 -10 -181 -39 -167 -123 4 -20 9 -58
12 -84 3 -26 12 -52 20 -59 8 -6 14 -28 14 -48 0 -20 5 -42 12 -49 7 -7 15
-36 19 -64 4 -29 12 -71 18 -93 6 -22 11 -61 11 -86 0 -26 7 -60 15 -75 8 -16
15 -52 15 -79 0 -28 5 -66 11 -85 30 -98 62 -620 54 -880 -7 -237 -33 -466
-54 -479 -4 -4 -11 -18 -15 -33 -3 -16 -11 -28 -16 -28 -6 0 -10 -10 -10 -22
-1 -13 -12 -41 -25 -63 -14 -22 -28 -46 -31 -53 -29 -60 -188 -202 -226 -202
-8 0 -31 -10 -53 -22 -27 -14 -64 -23 -116 -26 -75 -4 -77 -4 -147 38 -56 34
-74 50 -82 76 -7 19 -15 34 -20 34 -14 0 -21 113 -26 394 -3 195 -1 272 7 282
8 9 13 85 16 222 2 114 9 227 14 252 10 46 18 120 44 415 8 88 21 210 30 270
27 195 33 287 24 375 -5 47 -13 96 -18 110 -5 14 -12 36 -15 50 -3 14 -18 32
-33 41 -54 32 -181 67 -279 78 -54 6 -130 17 -169 23 -105 18 -141 16 -165 -9
-18 -20 -20 -35 -20 -140 0 -77 5 -132 15 -158 9 -27 14 -84 15 -175 0 -74 5
-189 11 -255 10 -122 30 -565 31 -710 1 -102 -18 -324 -32 -375 -15 -54 -16
-485 -2 -503 6 -7 14 -32 18 -55 4 -23 11 -45 15 -48 5 -3 9 -20 9 -38 0 -18
7 -41 15 -52 8 -10 15 -33 15 -50 0 -17 7 -37 15 -44 8 -7 15 -23 15 -36 0
-13 3 -24 8 -24 4 0 16 -15 26 -34 21 -39 119 -143 186 -197 111 -90 267 -151
445 -175 216 -29 404 -17 513 32 29 13 55 24 58 24 9 0 146 92 164 110 29 30
80 98 80 108 0 5 7 15 15 22 8 7 15 21 15 31 0 11 3 19 8 19 6 0 35 59 87 175
33 74 45 153 45 289 0 89 4 145 12 159 9 16 15 154 20 492 7 454 17 596 47
710 6 22 11 83 11 136 0 54 5 100 11 106 6 6 14 44 19 84 18 144 27 194 39
224 7 16 13 66 14 110 2 65 -2 89 -20 127 -13 26 -23 62 -23 81 0 72 -57 95
-200 80z"/>
<path d="M5765 5251 c-67 -9 -132 -31 -170 -58 -20 -15 -24 -27 -25 -69 0 -28
7 -71 15 -94 8 -24 15 -77 15 -119 0 -48 5 -82 13 -90 16 -16 14 -588 -2 -619
-7 -13 -11 -85 -11 -184 0 -91 -5 -179 -11 -198 -6 -19 -15 -120 -20 -225 -5
-104 -13 -253 -18 -330 -6 -77 -10 -374 -11 -660 0 -457 2 -524 16 -562 9 -24
21 -43 25 -43 5 0 9 -5 9 -11 0 -33 100 -77 215 -95 109 -17 463 -19 549 -3
99 18 250 67 290 94 20 14 39 25 41 25 8 0 45 32 101 85 88 85 144 219 145
346 1 90 -37 417 -50 433 -8 10 -20 59 -37 151 -6 33 -29 103 -50 152 -8 17
-14 38 -14 46 0 9 -4 18 -9 21 -4 3 -11 19 -15 36 -3 17 -12 38 -20 45 -8 8
-17 33 -21 56 -6 36 -4 44 14 59 22 16 45 49 57 82 3 9 12 19 20 22 8 3 14 12
14 21 0 8 4 15 8 15 9 0 42 69 42 87 0 6 7 16 15 23 8 7 15 19 15 27 0 8 6 29
13 46 44 102 47 127 47 347 -1 118 -5 235 -11 260 -14 67 -38 215 -49 304 -5
43 -14 84 -20 91 -6 7 -17 39 -26 71 -15 60 -67 147 -111 187 -14 12 -34 30
-44 40 -30 27 -82 57 -101 57 -9 0 -18 3 -20 8 -9 21 -72 51 -136 66 -40 9
-96 26 -125 37 -46 19 -77 21 -272 24 -121 2 -247 0 -280 -4z m483 -375 c86
-25 153 -62 185 -103 10 -13 24 -29 31 -36 25 -24 45 -83 51 -147 5 -59 -1
-137 -24 -315 -9 -68 -38 -155 -52 -155 -5 0 -9 -11 -9 -24 0 -13 -7 -29 -15
-36 -8 -7 -15 -17 -15 -22 0 -9 -23 -37 -79 -95 -13 -14 -46 -38 -72 -55 -27
-16 -49 -33 -49 -37 0 -4 -19 -14 -42 -21 -24 -7 -55 -16 -70 -21 -75 -22 -95
67 -101 459 -3 181 -9 278 -16 285 -7 7 -11 54 -11 121 0 137 14 173 80 204
59 28 108 27 208 -2z m-112 -1667 c8 -6 14 -26 14 -45 0 -18 5 -43 11 -56 9
-22 15 -23 84 -20 69 4 76 2 123 -29 28 -18 53 -40 56 -48 9 -23 30 -58 48
-78 32 -37 41 -91 30 -177 -6 -45 -16 -121 -21 -170 -6 -49 -17 -96 -25 -105
-7 -9 -21 -31 -30 -48 -10 -20 -33 -41 -59 -54 -23 -12 -49 -28 -58 -35 -9 -8
-49 -18 -90 -23 -84 -11 -120 0 -153 46 -17 23 -21 53 -28 197 -8 166 -5 219
13 242 9 12 29 119 36 200 4 46 2 55 -26 87 -37 42 -46 111 -17 133 19 13 66
5 92 -17z"/>
<path d="M12474 5236 c-70 -31 -93 -78 -112 -228 -4 -32 -13 -63 -20 -70 -7
-7 -12 -33 -12 -58 0 -25 -7 -55 -15 -66 -8 -10 -15 -31 -15 -45 0 -15 -7 -40
-15 -55 -8 -16 -15 -39 -15 -51 0 -13 -4 -23 -8 -23 -8 0 -32 -76 -46 -142 -4
-16 -11 -28 -16 -28 -6 0 -10 -11 -10 -24 0 -13 -7 -29 -15 -36 -8 -7 -15 -23
-15 -36 0 -12 -5 -26 -11 -29 -5 -4 -14 -17 -20 -28 -5 -12 -14 -31 -21 -42
-23 -41 -28 -50 -34 -65 -8 -22 -37 -74 -43 -80 -3 -3 -16 -25 -28 -50 -12
-25 -38 -63 -58 -85 -20 -22 -43 -53 -51 -70 -19 -38 -80 -85 -110 -85 -13 0
-33 13 -48 33 -14 17 -33 40 -42 49 -9 9 -20 36 -25 60 -5 24 -14 66 -20 93
-5 28 -14 84 -20 125 -5 41 -13 84 -18 95 -21 46 -41 115 -56 190 -8 44 -22
100 -30 125 -38 119 -45 145 -45 166 0 13 -4 25 -9 28 -5 4 -12 24 -16 47 -4
22 -13 53 -21 67 -8 15 -14 35 -14 44 0 26 -31 140 -41 152 -5 6 -20 24 -33
39 -30 37 -91 46 -361 52 -110 3 -251 13 -312 22 -92 13 -120 14 -153 4 -77
-23 -80 -31 -80 -201 0 -111 -4 -160 -15 -187 -13 -30 -15 -107 -15 -472 0
-240 -4 -452 -9 -471 -13 -47 -39 -901 -46 -1476 -4 -401 -3 -463 10 -474 8
-7 15 -19 15 -26 0 -41 77 -79 200 -100 104 -17 160 -17 225 0 73 19 101 52
110 127 9 75 -2 391 -17 474 -28 164 -43 1168 -19 1323 18 117 5 244 -31 293
-22 29 -23 41 -26 216 -3 155 -1 188 13 209 8 13 22 24 29 24 16 0 86 -77 86
-94 0 -6 7 -24 16 -41 16 -30 31 -90 40 -155 3 -19 11 -48 19 -65 38 -87 45
-108 45 -138 1 -46 23 -130 59 -222 17 -44 31 -85 31 -91 0 -7 6 -25 14 -41
29 -56 66 -170 66 -200 0 -11 7 -26 15 -33 8 -7 15 -24 15 -39 0 -14 7 -35 15
-45 8 -11 15 -36 15 -55 1 -20 7 -47 15 -61 8 -14 15 -38 15 -55 0 -16 7 -39
15 -49 8 -11 15 -27 15 -37 0 -9 7 -30 15 -45 8 -16 15 -46 15 -66 0 -20 4
-39 9 -42 5 -4 12 -25 16 -49 9 -52 35 -139 46 -151 5 -6 9 -27 9 -47 0 -21 5
-41 10 -44 6 -3 10 -14 10 -22 0 -30 44 -83 80 -95 36 -12 229 -13 305 -2 40
6 77 24 105 52 18 18 50 88 50 109 0 20 29 111 46 145 8 14 14 38 14 51 0 14
4 28 9 31 5 4 12 25 16 49 4 23 11 47 16 53 5 6 12 33 15 60 4 27 10 54 15 59
4 6 11 30 15 53 4 23 11 45 15 48 5 3 9 13 9 23 0 9 5 22 12 29 11 11 33 64
45 107 3 11 11 34 19 52 8 17 14 36 14 41 0 6 6 23 14 39 24 46 60 175 60 213
-1 19 -4 63 -9 97 -7 54 -4 72 18 135 24 69 38 126 52 211 7 42 31 62 87 72
28 5 40 3 56 -13 24 -24 30 -72 38 -317 3 -104 7 -192 9 -195 2 -3 4 -37 6
-75 1 -39 8 -83 16 -98 11 -23 13 -104 11 -461 -2 -303 -6 -437 -14 -447 -7
-8 -14 -63 -16 -122 -3 -62 -10 -113 -16 -119 -7 -7 -12 -32 -12 -57 0 -26 -7
-59 -15 -75 -21 -40 -20 -165 2 -208 9 -18 20 -41 25 -50 4 -10 8 -34 8 -53 0
-39 33 -78 80 -97 34 -14 334 -10 368 4 60 26 62 30 62 167 -1 69 -5 160 -11
201 -23 167 -30 269 -39 575 -5 176 -14 367 -20 425 -5 58 -10 249 -11 425 0
176 -5 352 -10 390 -21 136 -22 467 -3 620 10 77 19 221 21 320 l4 180 -28 33
c-43 51 -102 62 -328 61 -136 0 -199 -4 -221 -13z"/>
<path d="M1705 5161 c-27 -10 -63 -23 -78 -29 -16 -7 -35 -12 -44 -12 -30 0
-160 -72 -240 -132 -72 -54 -243 -221 -243 -237 0 -3 -13 -21 -30 -39 -17 -18
-30 -39 -30 -47 0 -7 -7 -15 -15 -19 -8 -3 -15 -15 -15 -26 0 -11 -4 -20 -9
-20 -5 0 -12 -11 -15 -25 -4 -14 -11 -25 -16 -25 -5 0 -12 -16 -16 -35 -3 -19
-10 -38 -15 -41 -5 -3 -9 -20 -9 -38 0 -19 -7 -39 -15 -46 -8 -7 -15 -27 -15
-45 0 -18 -7 -38 -15 -45 -9 -8 -15 -30 -15 -59 0 -26 -7 -56 -15 -67 -8 -10
-15 -36 -15 -57 0 -21 -6 -48 -12 -60 -7 -12 -16 -74 -20 -137 -4 -63 -14
-171 -22 -240 -15 -130 -7 -362 14 -458 6 -23 10 -66 10 -95 1 -28 7 -63 15
-77 8 -14 15 -41 15 -60 0 -19 7 -46 15 -60 8 -14 14 -46 15 -71 0 -29 6 -51
15 -59 8 -7 15 -27 15 -45 0 -18 7 -38 15 -45 8 -7 15 -25 15 -41 0 -15 4 -31
10 -34 5 -3 10 -15 10 -27 0 -18 13 -49 41 -98 5 -8 12 -22 15 -30 3 -8 12
-27 20 -42 8 -14 14 -33 14 -41 0 -8 7 -17 15 -21 8 -3 15 -15 15 -26 0 -11 5
-20 10 -20 6 0 10 -6 10 -14 0 -8 6 -21 13 -28 7 -7 28 -33 47 -58 208 -271
404 -359 777 -347 214 7 324 28 433 84 62 31 220 169 220 192 0 6 4 11 9 11
11 0 92 116 114 165 10 22 23 47 28 55 5 8 12 22 15 30 3 8 12 27 20 42 8 14
14 35 14 46 0 11 7 33 15 48 8 16 15 43 15 60 0 16 5 35 11 41 6 6 11 57 12
120 2 84 -2 117 -15 144 -18 37 -48 133 -48 154 0 18 -47 25 -100 15 -25 -5
-80 -9 -122 -10 l-78 0 -24 -38 c-20 -32 -24 -53 -28 -145 -2 -66 -8 -111 -16
-119 -6 -6 -12 -23 -12 -37 0 -15 -7 -35 -15 -45 -8 -11 -15 -26 -15 -35 0 -8
-6 -22 -13 -30 -7 -9 -22 -36 -32 -61 -32 -77 -114 -178 -204 -253 -12 -9 -24
-17 -28 -17 -3 0 -28 -14 -56 -31 -41 -25 -67 -32 -146 -41 -165 -17 -260 -1
-303 51 -10 12 -24 21 -33 21 -8 0 -21 12 -29 28 -8 15 -30 42 -50 60 -19 18
-38 43 -42 55 -4 12 -17 36 -29 52 -13 17 -26 41 -29 55 -4 14 -11 34 -15 45
-5 11 -16 47 -26 80 -9 33 -22 74 -27 90 -13 39 -25 104 -42 235 -8 58 -19
132 -25 164 -18 95 -14 667 4 757 8 41 19 108 25 149 14 114 20 136 51 197 16
31 29 64 29 72 0 9 7 25 15 35 8 11 15 26 15 34 0 8 14 31 30 52 17 21 30 45
30 53 0 8 7 17 15 21 8 3 15 12 15 20 0 8 3 16 8 18 8 3 52 64 52 72 0 12 114
126 126 126 7 0 14 3 16 8 6 13 93 50 146 61 74 15 224 13 306 -4 71 -15 167
-68 195 -108 8 -11 22 -27 33 -36 10 -8 18 -21 18 -27 0 -6 7 -17 15 -24 8 -7
15 -24 15 -39 1 -14 7 -37 15 -51 9 -17 14 -56 15 -118 0 -51 5 -102 11 -113
10 -19 24 -84 35 -159 6 -41 31 -96 57 -125 37 -41 252 -29 293 17 26 28 26
179 0 258 -10 30 -24 75 -31 100 -38 132 -48 167 -56 182 -5 10 -9 23 -9 29 0
12 -68 153 -83 174 -4 5 -21 26 -37 45 -16 19 -30 39 -30 43 0 13 -141 144
-169 158 -14 7 -36 22 -48 32 -22 19 -139 64 -241 92 -78 22 -340 19 -407 -4z"/>
</g>
</svg>
